<svg width="257" height="185" viewBox="0 0 257 185" fill="none" xmlns="http://www.w3.org/2000/svg">
<path d="M95.3301 49.9674C87.939 50.7935 82.0228 56.6269 81.1677 63.9385C78.8705 83.5792 78.8705 103.421 81.1677 123.062C82.0229 130.373 87.939 136.207 95.3301 137.033C114.555 139.181 134.445 139.181 153.67 137.033C161.061 136.207 166.977 130.373 167.833 123.062C169.483 108.949 169.948 94.733 169.226 80.5622C169.208 80.1963 169.344 79.8393 169.603 79.5802L176.312 72.8715C177.089 72.095 178.416 72.5805 178.498 73.6756C179.764 90.499 179.416 107.413 177.454 124.187C176.067 136.051 166.541 145.342 154.746 146.66C134.806 148.889 114.195 148.889 94.2541 146.66C82.4587 145.342 72.9334 136.051 71.5458 124.187C69.1612 103.798 69.1612 83.2016 71.5458 62.8131C72.9334 50.9494 82.4587 41.6582 94.2541 40.3399C114.195 38.1112 134.806 38.1112 154.746 40.3399C158.9 40.8042 162.773 42.2575 166.108 44.4639C166.764 44.898 166.829 45.8205 166.273 46.3769L161.088 51.5622C160.664 51.9863 160.006 52.0577 159.477 51.7744C157.711 50.8283 155.749 50.1998 153.67 49.9674C134.445 47.8187 114.555 47.8187 95.3301 49.9674Z" fill="#F5B610"/>
<path d="M182.821 54.9459C184.713 53.0543 184.713 49.9874 182.821 48.0958C180.929 46.2042 177.862 46.2042 175.971 48.0958L121.271 102.796L105.321 86.8458C103.429 84.9542 100.362 84.9542 98.4708 86.8458C96.5792 88.7374 96.5792 91.8043 98.4708 93.6959L117.846 113.071C119.737 114.962 122.804 114.962 124.696 113.071L182.821 54.9459Z" fill="#F5B610"/>
<line x1="18.8659" y1="1.77513" x2="56.7133" y2="28.5294" stroke="#F5B610" stroke-opacity="0.6" stroke-width="3"/>
<line y1="-1.5" x2="46.3489" y2="-1.5" transform="matrix(-0.816577 0.577236 0.577236 0.816577 55.8477 158)" stroke="#F5B610" stroke-opacity="0.6" stroke-width="3"/>
<line x1="35" y1="95.5" y2="95.5" stroke="#F5B610" stroke-opacity="0.6" stroke-width="3"/>
<line y1="-1.5" x2="46.3489" y2="-1.5" transform="matrix(-0.816577 0.577236 0.577236 0.816577 239.848 3)" stroke="#F5B610" stroke-opacity="0.6" stroke-width="3"/>
<line x1="202.866" y1="156.775" x2="240.713" y2="183.529" stroke="#F5B610" stroke-opacity="0.6" stroke-width="3"/>
<line y1="-1.5" x2="35" y2="-1.5" transform="matrix(1 0 0 -1 222 94)" stroke="#F5B610" stroke-opacity="0.6" stroke-width="3"/>
</svg>
